<?xml version="1.0" encoding="UTF-8"?><svg xmlns="http://www.w3.org/2000/svg" xmlns:xlink="http://www.w3.org/1999/xlink" height="448.0" preserveAspectRatio="xMidYMid meet" version="1.0" viewBox="24.0 32.0 463.3 448.0" width="463.3" zoomAndPan="magnify"><g><g><path d="M73.3,392l30.7,9.1l-9.1,30.7L72,425c0-0.1,0-0.2,0-0.3v-28.2L73.3,392z" fill="#FBB03B"/></g><g><path d="M160,179.3v44.4L140,290l20,93.8v40.9c0,8.4-6.8,15.3-15.3,15.3H136l-3-40.6l3-39.4l-30.1,3L72,360l14-74.5 l-14-61.8v-44.4c0-6.8,4.3-12.8,10.8-14.9L87,163c5.4-1.8,9-6.8,9-12.5v-32l21.1-11.9l18.9,12.6v31.3c0,5.7,3.6,10.7,9,12.5 l4.3,1.4C155.7,166.6,160,172.6,160,179.3z" fill="#FBB03B"/></g><g><path d="M312,288.1V320l-8,16l8,16h-78.3l-10,40l-1,4.1c-2.2,8.8-0.3,17.7-0.3,26.7c0,3.1-2.9,6.2-2.6,9.2 c0.1,1.5,0.3,2.9,0.5,4.4c0.2,1.2,0.3,2.4,0.6,3.6h-13.5c-8.4,0-15.3-6.9-15.3-15.3V392l16-40l-16-32v-31.9 c0-9.4,6.6-17.4,15.8-19.3l8-1.6c9.4-1.9,16.2-10.2,16.2-19.8V232l5-12h29l6,12.4v15.1c0,9.6,6.8,17.9,16.2,19.8l8,1.6 C305.4,270.7,312,278.8,312,288.1z" fill="#FCB668"/></g><g><path d="M432.7,440h-73.4c-8.4,0-15.3-6.8-15.3-15.3V241.8c0-16.3,7.7-31.6,20.7-41.3l0,0 c7.1-5.4,11.3-13.8,11.3-22.7V152l16-24h8l16,24v25.8c0,8.9,4.2,17.3,11.3,22.7l0,0c13,9.8,20.7,25.1,20.7,41.3v182.9 C448,433.2,441.2,440,432.7,440z" fill="#6AA69E"/></g><g><path d="M368 264H424V352H368z" fill="#E6E6E6"/></g><g><path d="M416,152h-40V38.6c0-3.6,2.9-6.6,6.6-6.6h26.9c3.6,0,6.6,2.9,6.6,6.6V152z" fill="#E6E6E6"/></g><g><path d="M312 320L312 352 233.7 352 223.7 392 192 392 192 320z" fill="#FDD1AC"/></g><g><path d="M160 224L160 384 136 384 136 360 72 360 72 224z" fill="#666"/></g><g><path d="M120 72L136 80 136 120 96 120 96 80z" fill="#666"/></g><g><path d="M272 232L232 232 232 200 239.7 195 263.6 195 272 200z" fill="#808080"/></g><g><path d="M480,316.4c-1.8,14.7-9,27.6-19.5,36.9c-10.4,9.2-17.7,6.7-32.5,6.7c-29.7,0-48.3-14.1-52-43.6 c-0.3-2.8-0.5-5.5-0.5-8.3c0-4.1-6.1-8.1-5.3-12.1c0.2-1.4,0.5-2.8,0.9-4.1l13-51.9h88l13,51.9c0.3,1.4,0.6,2.7,0.9,4.1 C487.1,302.7,480.9,309.6,480,316.4z" fill="#D9FCFC"/></g><g><path d="M312 352L316 372 312 392 276.6 396 223.7 392 233.7 352z" fill="#EFBF8B"/></g><g><path d="M312,392l3,19.2l-3,13.5c0,8.4-6.8,15.3-15.3,15.3h-75.9c-0.2-1.2-0.4-2.4-0.6-3.6 c-0.2-1.5-0.3-2.9-0.5-4.4c-0.3-3.1-0.4-6.2-0.4-9.2c0-9,1.1-17.9,3.3-26.7l1-4.1H312z" fill="#EFAA6C"/></g><g><path d="M335.6,432c-0.1,1.5-0.3,2.9-0.5,4.4c-1.6,12.5-7.6,23.4-16.5,31.1c-8.8,7.8-20.4,12.5-32.9,12.5h-16.1 c-23.9,0-44.2-16.9-48.8-40h75.9c8.4,0,15.3-6.9,15.3-15.3V352h9.7l11,44.1C335.7,407.8,336.6,419.9,335.6,432z" fill="#D9FCFC"/></g><g><path d="M335.6,432c-0.1,1.5-0.3,2.9-0.5,4.4c-1.6,12.5-7.6,23.4-16.5,31.1c-8.8,7.8-20.4,12.5-32.9,12.5h-16.1 c-25.1,0-46.3-18.7-49.4-43.6c-0.2-1.5-0.3-2.9-0.5-4.4h41.9h43.7H335.6z" fill="#D89552"/></g><g><path d="M480,480l-46.6-21.5c0.4-0.8,0.6-1.6,0.6-2.5V344c0-3.3-2.7-6-6-6s-6,2.7-6,6v112c0,0.9,0.2,1.7,0.6,2.5 L376,480H480z" fill="#D9FCFC"/></g><g><path d="M486.4,316.4c-1.8,14.7-9,27.6-19.5,36.9c-10.4,9.2-24.1,14.7-39,14.7c-29.7,0-54.8-22.1-58.4-51.6 c-0.3-2.8-0.5-5.5-0.5-8.3c0-4.1,0.4-8.1,1.1-12.1h115.7C487.1,302.7,487.3,309.6,486.4,316.4z" fill="#EA8C94"/></g><g><path d="M136 360L136 384 104.5 388 72 384 69 372.2 72 360z" fill="#848280"/></g><g><path d="M136,384v56H87.3c-8.4,0-15.1-6.7-15.3-15l11.2,0.3l11.7,6.5l1-13.4l8.1-17.2l-16.1-0.8L73.3,392l-1.3,4.5 V384H136z" fill="#F4CD9D"/></g><g><path d="M136,440v40H24V360h48v36.5l1.3-4.5l30.7,9.1l-9.1,30.7L72,425c0.1,8.3,6.9,15,15.3,15H136z" fill="#D9FCFC"/></g><g><path d="M124.6,467H35.4c-5.2,0-9.4-4.2-9.4-9.4V408h108v49.6C134,462.8,129.8,467,124.6,467z" fill="#F7C077"/></g><g><path d="M44.6 419.4H76.6V451.4H44.6z" fill="#E6E6E6" transform="rotate(-20.388 60.56 435.378)"/></g><g><path d="M91.9 419.4H123.9V451.4H91.9z" fill="#E6E6E6" transform="rotate(16.544 107.872 435.408)"/></g><g><path d="M104 401.1L94.9 431.8 72 425 64.2 422.7 72 396.5 73.3 392z" fill="#E6E6E6"/></g><g><path d="M132,352h-32c-6.6,0-12-5.4-12-12v-80c0-6.6,5.4-12,12-12h32c6.6,0,12,5.4,12,12v80 C144,346.6,138.6,352,132,352z" fill="#E6E6E6"/></g><g><path d="M136,80H96V54.9c0-3.8,3.1-6.9,6.9-6.9h26.2c3.8,0,6.9,3.1,6.9,6.9V80z" fill="#333"/></g><g><path d="M224 330H280V342H224z" fill="#E6E6E6"/></g><g><path d="M415.8,96h-39.7c-4.5,0-8.2-3.7-8.2-8.2V64.2c0-4.5,3.7-8.2,8.2-8.2h39.7c4.5,0,8.2,3.7,8.2,8.2v23.7 C424,92.3,420.3,96,415.8,96z" fill="#666"/></g><g><path d="M272.6,200h-41.3c-4.1,0-7.4-3.3-7.4-7.4v-17.3c0-4.1,3.3-7.4,7.4-7.4h41.3c4.1,0,7.4,3.3,7.4,7.4v17.3 C280,196.7,276.7,200,272.6,200z" fill="#4D4D4D"/></g></g></svg>