<?xml version="1.0" encoding="UTF-8"?><svg xmlns="http://www.w3.org/2000/svg" xmlns:xlink="http://www.w3.org/1999/xlink" height="464.0" preserveAspectRatio="xMidYMid meet" version="1.0" viewBox="24.0 24.0 456.0 464.0" width="456.0" zoomAndPan="magnify"><g><g><path d="M 128 189.480469 L 128 88 L 80 88 L 80 189.480469 C 80 216.890625 70.050781 243.371094 52 264 C 33.949219 284.628906 24 311.109375 24 338.519531 L 24 461.636719 C 24 467.359375 28.640625 472 34.363281 472 L 173.636719 472 C 179.359375 472 184 467.359375 184 461.636719 L 184 338.519531 C 184 311.109375 174.050781 284.628906 156 264 C 137.949219 243.371094 128 216.890625 128 189.480469" fill="#355624"/></g><g><path d="M 156 264 C 150.386719 257.585938 145.558594 250.605469 141.566406 243.203125 C 143.171875 250.820312 144 258.632812 144 266.519531 L 144 280 C 144 346.273438 90.273438 400 24 400 L 24 461.636719 C 24 467.359375 28.640625 472 34.363281 472 L 173.636719 472 C 179.359375 472 184 467.359375 184 461.636719 L 184 338.519531 C 184 311.109375 174.050781 284.628906 156 264" fill="#253b1b"/></g><g><path d="M 40 461.636719 L 40 338.519531 C 40 311.109375 49.949219 284.628906 68 264 C 86.050781 243.371094 96 216.890625 96 189.480469 L 96 88 L 80 88 L 80 189.480469 C 80 216.890625 70.050781 243.371094 52 264 C 33.949219 284.628906 24 311.109375 24 338.519531 L 24 461.636719 C 24 467.359375 28.640625 472 34.363281 472 L 50.363281 472 C 44.640625 472 40 467.359375 40 461.636719" fill="#75ab2c"/></g><g><path d="M 127.136719 68.320312 L 80.863281 68.320312 L 72 24 L 136 24 L 127.136719 68.320312" fill="#d7771a"/></g><g><path d="M 117.535156 24 L 113.769531 42.824219 C 112.238281 50.484375 105.511719 56 97.699219 56 L 78.402344 56 L 80.863281 68.320312 L 127.136719 68.320312 L 136 24 L 117.535156 24" fill="#bc601d"/></g><g><path d="M 464 472 L 352 472 L 336 440 L 336 424 L 480 424 L 480 440 L 464 472" fill="#d5e8f1"/></g><g><path d="M 448 424 C 438.195312 443.609375 418.148438 456 396.222656 456 L 344 456 L 352 472 L 464 472 L 480 440 L 480 424 L 448 424" fill="#abc0d2"/></g><g><path d="M 136 96 L 72 96 L 72 64 L 136 64 L 136 96" fill="#2b1413"/></g><g><path d="M 92.230469 88 L 72 88 L 72 64 L 104 64 L 104 76.230469 C 104 82.730469 98.730469 88 92.230469 88" fill="#83321c"/></g><g><path d="M 480 184 L 480 200 L 336 200 L 336 184 L 352 152 L 464 152 L 480 184" fill="#d5e8f1"/></g><g><path d="M 464 152 L 432 152 L 448 184 L 448 200 L 480 200 L 480 184 L 464 152" fill="#abc0d2"/></g><g><path d="M 480 440 L 336 440 L 336 184 L 480 184 L 480 440" fill="#dd2731"/></g><g><path d="M 480 440 L 448 440 L 448 184 L 480 184 L 480 440" fill="#ba2428"/></g><g><path d="M 336 392 L 480 392 L 480 232 L 336 232 L 336 392" fill="#eeb20d"/></g><g><path d="M 448 392 L 480 392 L 480 232 L 448 232 L 448 392" fill="#d79916"/></g><g><path d="M 472 312 C 472 365.019531 443.347656 408 408 408 C 372.652344 408 344 365.019531 344 312 C 344 258.980469 372.652344 216 408 216 C 443.347656 216 472 258.980469 472 312" fill="#fcd56b"/></g><g><path d="M 288 288 L 288.785156 285.644531 C 293.5625 271.308594 296 256.296875 296 241.1875 C 296 219.363281 290.917969 197.835938 281.15625 178.316406 L 280 176 L 280 168 L 232 168 L 232 176 L 230.84375 178.316406 C 221.082031 197.835938 216 219.363281 216 241.1875 C 216 256.296875 218.4375 271.308594 223.214844 285.644531 L 224 288 L 181.988281 303.753906 C 168.761719 308.714844 160 321.359375 160 335.484375 L 160 476.238281 C 160 482.734375 165.265625 488 171.761719 488 L 340.238281 488 C 346.734375 488 352 482.734375 352 476.238281 L 352 335.484375 C 352 321.359375 343.238281 308.714844 330.011719 303.753906 L 288 288" fill="#d7771a"/></g><g><path d="M 330.011719 303.753906 L 311.160156 296.6875 C 316.71875 302.796875 320 310.859375 320 319.484375 L 320 460.238281 C 320 466.734375 314.734375 472 308.238281 472 L 160 472 L 160 476.238281 C 160 482.734375 165.265625 488 171.761719 488 L 340.238281 488 C 346.734375 488 352 482.734375 352 476.238281 L 352 335.484375 C 352 321.359375 343.238281 308.714844 330.011719 303.753906" fill="#bc601d"/></g><g><path d="M 251.828125 168 C 259.835938 185.980469 264 205.457031 264 225.1875 C 264 240.296875 261.5625 255.308594 256.785156 269.644531 L 256 272 L 289.175781 284.4375 C 293.691406 270.46875 296 255.875 296 241.1875 C 296 219.363281 290.917969 197.839844 281.15625 178.316406 L 280 176 L 280 168 L 251.828125 168" fill="#bc601d"/></g><g><path d="M 176 476.238281 L 176 335.484375 C 176 321.359375 184.761719 308.714844 197.988281 303.753906 L 240 288 L 239.214844 285.644531 C 234.4375 271.308594 232 256.296875 232 241.1875 C 232 219.363281 237.082031 197.839844 246.84375 178.316406 L 248 176 L 248 168 L 232 168 L 232 176 L 230.84375 178.316406 C 221.082031 197.839844 216 219.363281 216 241.1875 C 216 256.296875 218.4375 271.308594 223.214844 285.644531 L 224 288 L 181.988281 303.753906 C 168.761719 308.714844 160 321.359375 160 335.484375 L 160 476.238281 C 160 482.734375 165.265625 488 171.761719 488 L 187.761719 488 C 181.265625 488 176 482.734375 176 476.238281" fill="#eeb20d"/></g><g><path d="M 64 248 C 86.09375 270.09375 121.90625 270.09375 144 248 L 144.191406 247.808594 C 133.664062 230.300781 128 210.15625 128 189.480469 L 128 96 L 80 96 L 80 189.480469 C 80 210.15625 74.335938 230.300781 63.804688 247.808594 L 64 248" fill="#eeb20d"/></g><g><path d="M 128 189.480469 L 128 96 L 111.808594 96 L 111.808594 181.480469 C 111.808594 202.15625 117.472656 222.300781 128 239.808594 L 127.808594 240 C 112.480469 255.324219 90.554688 260.007812 71.1875 254.070312 C 93.28125 269.847656 124.167969 267.832031 144 248 L 144.191406 247.808594 C 133.664062 230.300781 128 210.15625 128 189.480469" fill="#d79916"/></g><g><path d="M 152 432 L 56 432 L 56 336 L 152 336 L 152 432" fill="#abc0d2"/></g><g><path d="M 64.652344 416 L 56 416 L 56 336 L 136 336 L 136 344.648438 C 136 384.054688 104.054688 416 64.652344 416" fill="#d5e8f1"/></g><g><path d="M 288 176 L 224 176 L 224 96 L 288 96 L 288 176" fill="#41405b"/></g><g><path d="M 288 176 L 256 176 L 256 96 L 288 96 L 288 176" fill="#2b2a39"/></g><g><path d="M 288 152 L 224 152 L 224 120 L 288 120 L 288 152" fill="#83321c"/></g><g><path d="M 288 152 L 256 152 L 256 120 L 288 120 L 288 152" fill="#2b1413"/></g><g><path d="M 352 456 L 160 456 L 160 344 L 352 344 L 352 456" fill="#41405b"/></g><g><path d="M 304 344 C 304 392.601562 264.601562 432 216 432 L 160 432 L 160 456 L 352 456 L 352 344 L 304 344" fill="#2b2a39"/></g><g><path d="M 296 241.1875 C 296 219.363281 290.917969 197.839844 281.15625 178.316406 L 280 176 L 232 176 L 230.84375 178.316406 C 221.082031 197.839844 216 219.363281 216 241.1875 C 216 243.460938 216.0625 245.730469 216.171875 248 L 295.828125 248 C 295.9375 245.730469 296 243.460938 296 241.1875" fill="#41405b"/></g><g><path d="M 281.15625 178.316406 L 280 176 L 232 176 L 230.84375 178.316406 C 228.609375 182.777344 226.636719 187.351562 224.898438 192 L 264 192 L 265.15625 194.316406 C 273.546875 211.09375 278.46875 229.347656 279.6875 248 L 295.828125 248 C 295.9375 245.730469 296 243.460938 296 241.1875 C 296 219.363281 290.917969 197.839844 281.15625 178.316406" fill="#2b2a39"/></g><g><path d="M 424 219.023438 L 424 288.5625 C 424 328.015625 392.015625 360 352.5625 360 C 363.632812 388.691406 384.3125 408 408 408 C 443.347656 408 472 365.019531 472 312 C 472 267.269531 451.605469 229.683594 424 219.023438" fill="#fab82a"/></g><g><path d="M 440 312 C 440 338.511719 425.671875 360 408 360 C 390.328125 360 376 338.511719 376 312 C 376 285.488281 390.328125 264 408 264 C 425.671875 264 440 285.488281 440 312" fill="#d5e8f1"/></g><g><path d="M 64.675781 283.539062 C 68.242188 286.148438 67.957031 292.601562 64.042969 297.949219 C 60.128906 303.296875 54.0625 305.515625 50.5 302.90625 C 46.933594 300.296875 47.21875 293.84375 51.132812 288.496094 C 55.046875 283.148438 61.109375 280.929688 64.675781 283.539062" fill="#d6eb7a"/></g><g><path d="M 77.183594 290.230469 C 78.074219 292.25 77.15625 294.609375 75.136719 295.503906 C 73.113281 296.394531 70.753906 295.476562 69.863281 293.457031 C 68.972656 291.433594 69.886719 289.074219 71.910156 288.183594 C 73.929688 287.289062 76.292969 288.207031 77.183594 290.230469" fill="#d6eb7a"/></g><g><path d="M 211.675781 314.21875 C 214.21875 317.832031 211.882812 323.851562 206.460938 327.664062 C 201.039062 331.476562 194.585938 331.636719 192.042969 328.019531 C 189.503906 324.40625 191.839844 318.386719 197.257812 314.574219 C 202.679688 310.761719 209.136719 310.605469 211.675781 314.21875" fill="#fcd56b"/></g><g><path d="M 221.382812 324.558594 C 221.578125 326.761719 219.953125 328.703125 217.753906 328.898438 C 215.554688 329.097656 213.609375 327.472656 213.414062 325.273438 C 213.21875 323.070312 214.84375 321.128906 217.042969 320.933594 C 219.242188 320.734375 221.1875 322.359375 221.382812 324.558594" fill="#fcd56b"/></g></g></svg>